<?xml version="1.0" encoding="UTF-8"?>
<svg xmlns="http://www.w3.org/2000/svg" xmlns:xlink="http://www.w3.org/1999/xlink" width="93pt" height="28pt" viewBox="0 0 93 28" version="1.1">
<g id="surface1">
<path style=" stroke:none;fill-rule:nonzero;fill:rgb(0%,0%,0%);fill-opacity:1;" d="M 12.980469 0.480469 C 12.945312 0.515625 12.554688 0.613281 12.082031 0.710938 C 10.75 0.984375 9.878906 1.398438 8.480469 2.394531 C 7.324219 3.214844 6.441406 4.277344 5.785156 5.632812 C 5.140625 6.96875 4.902344 7.820312 4.8125 9.1875 L 4.75 10.214844 L 4.050781 10.707031 C 2.195312 12.007812 0.9375 13.726562 0.285156 15.871094 C 0.03125 16.703125 0 16.984375 0 18.496094 C 0 20.34375 0.152344 21.132812 0.753906 22.476562 C 1.363281 23.832031 2.683594 25.429688 3.875 26.25 C 5.828125 27.59375 8.589844 28.195312 10.851562 27.769531 C 11.625 27.617188 13.042969 27.113281 13.753906 26.730469 L 14.253906 26.457031 L 14.921875 26.785156 C 15.28125 26.972656 15.96875 27.257812 16.4375 27.421875 C 17.234375 27.695312 17.433594 27.714844 19.046875 27.726562 C 20.664062 27.726562 20.859375 27.703125 21.765625 27.421875 C 23.054688 27.003906 23.707031 26.6875 24.582031 26.03125 C 28.378906 23.164062 29.484375 18.429688 27.386719 14.054688 C 26.820312 12.882812 25.171875 11.113281 24.070312 10.488281 C 23.402344 10.117188 23.402344 10.105469 23.316406 8.792969 C 23.28125 8.300781 23.21875 7.789062 23.152344 7.644531 C 23.097656 7.503906 22.988281 7.164062 22.910156 6.890625 C 22.605469 5.796875 21.570312 4.089844 20.683594 3.226562 C 19.460938 2.023438 17.726562 1.050781 16.296875 0.765625 C 15.949219 0.699219 15.488281 0.589844 15.269531 0.535156 C 14.878906 0.4375 13.066406 0.394531 12.980469 0.480469 Z M 15.71875 2.230469 C 16.679688 2.472656 17.191406 2.679688 18 3.160156 C 19.507812 4.058594 20.664062 5.414062 21.296875 7.042969 C 21.632812 7.90625 21.875 9.1875 21.742188 9.320312 C 21.6875 9.375 21.296875 9.339844 20.859375 9.242188 C 19.515625 8.957031 19.453125 8.980469 18.6875 9.832031 C 18.328125 10.25 18.054688 10.609375 18.085938 10.652344 C 18.121094 10.6875 18.402344 10.6875 18.710938 10.652344 C 19.332031 10.578125 20.828125 10.773438 21.371094 11.003906 C 21.6875 11.132812 21.722656 11.1875 21.667969 11.453125 C 21.480469 12.273438 20.925781 13.585938 20.457031 14.273438 C 20.367188 14.394531 20.304688 14.523438 20.304688 14.570312 C 20.304688 14.6875 21.046875 14.679688 21.109375 14.558594 C 21.144531 14.515625 21.417969 14.4375 21.722656 14.394531 C 22.214844 14.328125 22.289062 14.285156 22.476562 13.914062 C 22.585938 13.695312 22.78125 13.179688 22.910156 12.773438 C 23.054688 12.371094 23.207031 12.007812 23.261719 11.964844 C 23.5 11.824219 24.855469 13.09375 25.53125 14.097656 C 28.511719 18.5625 26.242188 24.566406 21.035156 26.007812 C 20.105469 26.261719 18.085938 26.25 17.191406 25.988281 C 16.40625 25.757812 15.859375 25.515625 15.761719 25.363281 C 15.730469 25.296875 15.894531 25.035156 16.121094 24.796875 C 16.363281 24.542969 16.699219 24.148438 16.863281 23.921875 L 17.171875 23.503906 L 16.875 22.609375 C 16.460938 21.351562 16.449219 21.328125 16.15625 21.941406 C 15.6875 22.945312 14.550781 24.390625 14.222656 24.390625 C 13.90625 24.390625 12.652344 22.816406 12.117188 21.765625 L 11.863281 21.273438 L 11.546875 22.246094 C 11.375 22.773438 11.253906 23.320312 11.285156 23.449219 C 11.320312 23.582031 11.667969 24.074219 12.0625 24.554688 C 12.453125 25.023438 12.738281 25.441406 12.695312 25.484375 C 12.574219 25.59375 11.484375 26 10.96875 26.128906 C 10.097656 26.359375 8.929688 26.390625 7.871094 26.207031 C 2.738281 25.308594 -0.109375 19.4375 2.378906 14.875 C 3.023438 13.703125 4.410156 12.195312 4.855469 12.195312 C 4.976562 12.195312 5.109375 12.4375 5.28125 12.90625 C 5.730469 14.195312 5.773438 14.25 6.441406 14.414062 C 6.769531 14.503906 7.257812 14.589844 7.519531 14.625 L 7.988281 14.679688 L 7.671875 14.207031 C 7.085938 13.320312 6.550781 12.042969 6.550781 11.527344 C 6.550781 11.199219 6.746094 11.101562 7.859375 10.871094 C 8.480469 10.75 9.039062 10.707031 9.574219 10.75 L 10.371094 10.804688 L 10.171875 10.554688 C 10.0625 10.421875 9.738281 10.039062 9.453125 9.722656 L 8.929688 9.144531 L 7.71875 9.320312 C 7.039062 9.417969 6.449219 9.460938 6.394531 9.40625 C 6.289062 9.296875 6.59375 7.734375 6.886719 6.933594 C 7.464844 5.402344 8.851562 3.859375 10.402344 3.03125 C 11.230469 2.582031 11.546875 2.460938 12.554688 2.199219 C 13.132812 2.046875 15.042969 2.066406 15.71875 2.230469 Z M 15.71875 2.230469 "/>
<path style=" stroke:none;fill-rule:nonzero;fill:rgb(0%,0%,0%);fill-opacity:1;" d="M 12.933594 10.5 C 12.398438 10.621094 11.613281 11.003906 11.078125 11.417969 C 10.347656 11.964844 9.386719 13.257812 9.386719 13.671875 C 9.386719 13.738281 10.0625 13.78125 11.40625 13.78125 L 13.425781 13.78125 L 13.425781 12.152344 C 13.425781 11.242188 13.394531 10.488281 13.351562 10.46875 C 13.296875 10.445312 13.121094 10.457031 12.933594 10.5 Z M 12.933594 10.5 "/>
<path style=" stroke:none;fill-rule:nonzero;fill:rgb(0%,0%,0%);fill-opacity:1;" d="M 14.734375 12.074219 L 14.734375 13.78125 L 16.972656 13.78125 C 18.304688 13.78125 19.210938 13.738281 19.210938 13.683594 C 19.210938 13.617188 19.035156 13.277344 18.828125 12.929688 C 18.097656 11.671875 16.589844 10.609375 15.304688 10.433594 L 14.734375 10.359375 Z M 14.734375 12.074219 "/>
<path style=" stroke:none;fill-rule:nonzero;fill:rgb(0%,0%,0%);fill-opacity:1;" d="M 9.058594 15.3125 C 9.058594 15.53125 9.136719 15.53125 14.355469 15.53125 C 19.570312 15.53125 19.648438 15.53125 19.648438 15.3125 C 19.648438 15.09375 19.570312 15.09375 14.355469 15.09375 C 9.136719 15.09375 9.058594 15.09375 9.058594 15.3125 Z M 9.058594 15.3125 "/>
<path style=" stroke:none;fill-rule:nonzero;fill:rgb(0%,0%,0%);fill-opacity:1;" d="M 9.191406 17.140625 C 9.222656 17.3125 9.464844 17.335938 11.84375 17.390625 L 14.464844 17.445312 L 14.496094 18.070312 L 14.527344 18.703125 L 12.34375 18.703125 C 11.101562 18.703125 10.140625 18.746094 10.097656 18.800781 C 9.988281 18.988281 11.167969 20.003906 11.917969 20.386719 C 13.371094 21.132812 15.085938 21.152344 16.570312 20.453125 C 17.738281 19.90625 19.003906 18.441406 19.375 17.195312 L 19.441406 16.953125 L 14.300781 16.953125 C 9.453125 16.953125 9.15625 16.964844 9.191406 17.140625 Z M 9.191406 17.140625 "/>
<path style=" stroke:none;fill-rule:nonzero;fill:rgb(0%,0%,0%);fill-opacity:1;" d="M 52.613281 7.84375 L 52.613281 9.40625 L 51.628906 9.40625 C 50.832031 9.40625 50.648438 9.4375 50.648438 9.570312 C 50.648438 9.703125 50.824219 9.734375 51.574219 9.734375 C 52.472656 9.734375 52.503906 9.746094 52.503906 9.976562 C 52.503906 10.75 51.476562 13.867188 50.746094 15.335938 C 50.484375 15.847656 50.460938 15.96875 50.59375 16.078125 C 50.714844 16.175781 50.8125 16.066406 51.128906 15.507812 C 51.457031 14.917969 51.980469 13.824219 52.480469 12.6875 C 52.570312 12.480469 52.601562 13.222656 52.601562 15.71875 L 52.613281 19.03125 L 53.375 19.03125 L 53.398438 15.445312 L 53.429688 11.867188 L 53.824219 12.6875 C 54.042969 13.136719 54.273438 13.648438 54.347656 13.8125 C 54.4375 14.042969 54.535156 14.121094 54.707031 14.085938 C 55.441406 13.976562 55.179688 13.046875 54.128906 12 L 53.375 11.242188 L 53.375 9.746094 L 54.382812 9.710938 C 54.960938 9.691406 55.394531 9.636719 55.417969 9.558594 C 55.441406 9.503906 55.285156 9.253906 55.089844 9.023438 L 54.730469 8.609375 L 54.425781 9 C 54.171875 9.328125 54.042969 9.40625 53.746094 9.40625 L 53.375 9.40625 L 53.375 8.203125 C 53.375 7.285156 53.410156 7 53.519531 7 C 53.59375 7 53.757812 6.933594 53.878906 6.847656 C 54.183594 6.617188 53.964844 6.453125 53.222656 6.355469 L 52.613281 6.265625 Z M 52.613281 7.84375 "/>
<path style=" stroke:none;fill-rule:nonzero;fill:rgb(0%,0%,0%);fill-opacity:1;" d="M 57.195312 6.988281 L 57.195312 7.765625 L 55.996094 7.765625 C 54.816406 7.765625 54.796875 7.777344 54.90625 7.984375 C 55.015625 8.179688 55.132812 8.203125 56.105469 8.203125 L 57.195312 8.203125 L 57.195312 9.40625 L 57.960938 9.40625 L 57.960938 8.191406 L 58.976562 8.226562 L 59.980469 8.257812 L 60.011719 8.835938 L 60.046875 9.417969 L 60.394531 9.382812 C 60.734375 9.351562 60.746094 9.328125 60.777344 8.773438 L 60.808594 8.203125 L 61.933594 8.203125 C 62.820312 8.203125 63.089844 8.171875 63.199219 8.039062 C 63.320312 7.886719 63.277344 7.796875 62.917969 7.425781 L 62.492188 6.988281 L 62.1875 7.382812 C 61.902344 7.722656 61.8125 7.765625 61.335938 7.765625 L 60.800781 7.765625 L 60.800781 7.328125 C 60.800781 7.042969 60.855469 6.890625 60.941406 6.890625 C 61.019531 6.890625 61.136719 6.835938 61.214844 6.757812 C 61.441406 6.53125 61.148438 6.34375 60.570312 6.34375 L 60.035156 6.34375 L 60.035156 7.765625 L 57.960938 7.765625 L 57.960938 7.414062 C 57.960938 7.164062 58.046875 6.988281 58.265625 6.824219 C 58.636719 6.519531 58.527344 6.386719 57.777344 6.289062 L 57.195312 6.210938 Z M 57.195312 6.988281 "/>
<path style=" stroke:none;fill-rule:nonzero;fill:rgb(0%,0%,0%);fill-opacity:1;" d="M 38.96875 7.875 L 38.96875 9.40625 L 37.769531 9.40625 C 36.753906 9.40625 36.578125 9.429688 36.632812 9.570312 C 36.6875 9.703125 36.917969 9.734375 37.789062 9.734375 L 38.882812 9.734375 L 38.804688 10.140625 C 38.574219 11.375 37.582031 13.945312 36.863281 15.191406 C 36.414062 15.9375 36.390625 16.035156 36.601562 16.109375 C 36.796875 16.1875 37.777344 14.667969 38.433594 13.289062 L 38.957031 12.195312 L 38.988281 15.585938 L 39.023438 18.976562 L 39.382812 19.007812 L 39.730469 19.042969 L 39.730469 15.398438 L 39.742188 11.757812 L 40.136719 12.195312 C 40.34375 12.4375 40.703125 12.972656 40.921875 13.398438 C 41.335938 14.195312 41.632812 14.394531 41.914062 14.066406 C 42.296875 13.59375 41.609375 12.535156 40.355469 11.679688 L 39.722656 11.253906 L 39.753906 10.523438 L 39.785156 9.789062 L 41.019531 9.757812 C 42.046875 9.734375 42.242188 9.703125 42.242188 9.558594 C 42.242188 9.363281 41.621094 8.53125 41.480469 8.53125 C 41.433594 8.53125 41.269531 8.726562 41.109375 8.96875 C 40.835938 9.382812 40.792969 9.40625 40.277344 9.40625 L 39.730469 9.40625 L 39.730469 8.226562 C 39.730469 7.066406 39.742188 7.03125 40.003906 6.914062 C 40.574219 6.648438 40.246094 6.34375 39.382812 6.34375 L 38.96875 6.34375 Z M 38.96875 7.875 "/>
<path style=" stroke:none;fill-rule:nonzero;fill:rgb(0%,0%,0%);fill-opacity:1;" d="M 84.769531 6.429688 C 84.738281 6.464844 84.703125 7.023438 84.703125 7.679688 L 84.703125 8.859375 L 81.867188 8.859375 C 79.398438 8.859375 79.039062 8.882812 79.09375 9.023438 C 79.148438 9.164062 79.574219 9.1875 81.933594 9.1875 L 84.703125 9.1875 L 84.703125 11.484375 L 83.175781 11.484375 C 81.855469 11.484375 81.582031 11.453125 81.210938 11.265625 C 80.972656 11.144531 80.753906 11.046875 80.71875 11.046875 C 80.6875 11.046875 80.664062 12.46875 80.664062 14.21875 L 80.664062 17.390625 L 81.539062 17.390625 L 81.539062 11.8125 L 84.703125 11.8125 L 84.726562 15.390625 L 84.757812 18.976562 L 85.523438 18.976562 L 85.554688 15.390625 L 85.578125 11.8125 L 88.960938 11.8125 L 88.9375 13.96875 L 88.90625 16.132812 L 87.726562 16.109375 C 86.691406 16.101562 86.550781 16.121094 86.582031 16.273438 C 86.605469 16.394531 86.820312 16.492188 87.238281 16.582031 C 87.871094 16.703125 88.414062 16.984375 88.414062 17.171875 C 88.414062 17.335938 88.929688 17.304688 89.300781 17.117188 C 89.472656 17.019531 89.671875 16.820312 89.726562 16.667969 C 89.789062 16.515625 89.835938 15.445312 89.835938 14.285156 C 89.835938 12.316406 89.84375 12.164062 90.054688 11.976562 C 90.347656 11.714844 90.324219 11.636719 89.921875 11.253906 C 89.484375 10.871094 89.363281 10.859375 89.136719 11.210938 C 88.960938 11.484375 88.949219 11.484375 87.269531 11.484375 L 85.578125 11.484375 L 85.578125 10.707031 C 85.578125 10.03125 85.597656 9.929688 85.796875 9.875 C 86.167969 9.777344 86.035156 9.539062 85.554688 9.382812 C 85.140625 9.253906 85.445312 9.230469 88.242188 9.1875 C 90.597656 9.144531 91.40625 9.101562 91.4375 9 C 91.472656 8.925781 91.273438 8.628906 91.011719 8.355469 L 90.53125 7.84375 L 90.117188 8.355469 L 89.703125 8.859375 L 85.578125 8.859375 L 85.578125 7.996094 C 85.578125 7.230469 85.597656 7.121094 85.785156 7.054688 C 85.90625 7.023438 86.058594 6.921875 86.125 6.835938 C 86.230469 6.703125 86.210938 6.660156 86.003906 6.585938 C 85.652344 6.453125 84.847656 6.355469 84.769531 6.429688 Z M 84.769531 6.429688 "/>
<path style=" stroke:none;fill-rule:nonzero;fill:rgb(0%,0%,0%);fill-opacity:1;" d="M 75.6875 7 L 75.371094 7.4375 L 71.257812 7.4375 C 67.457031 7.4375 67.109375 7.425781 66.660156 7.230469 L 66.179688 7.023438 L 66.113281 10.257812 C 66.050781 13.726562 65.90625 15.027344 65.4375 16.691406 C 65.285156 17.195312 65.046875 17.851562 64.902344 18.15625 C 64.695312 18.59375 64.675781 18.714844 64.785156 18.8125 C 64.96875 18.964844 65.285156 18.570312 65.765625 17.554688 C 66.605469 15.804688 66.910156 14.03125 66.988281 10.46875 L 67.054688 7.765625 L 69.214844 7.765625 C 71.691406 7.765625 71.484375 7.65625 71.210938 8.871094 L 71.039062 9.625 L 70.152344 9.625 C 69.585938 9.613281 69.160156 9.558594 68.984375 9.460938 C 68.429688 9.144531 68.441406 9.109375 68.441406 11.921875 L 68.441406 14.546875 L 68.820312 14.546875 C 69.171875 14.546875 69.203125 14.523438 69.203125 14.21875 L 69.203125 13.878906 L 70.382812 13.914062 L 71.550781 13.945312 L 71.574219 15.695312 C 71.59375 16.679688 71.5625 17.523438 71.496094 17.609375 C 71.421875 17.742188 71.191406 17.761719 70.351562 17.742188 C 69.488281 17.707031 69.3125 17.742188 69.3125 17.871094 C 69.3125 17.980469 69.519531 18.070312 69.945312 18.15625 C 70.578125 18.289062 70.949219 18.515625 70.949219 18.78125 C 70.949219 19.109375 72.042969 18.789062 72.25 18.398438 C 72.324219 18.253906 72.371094 17.359375 72.371094 16.035156 L 72.371094 13.890625 L 74.554688 13.890625 L 74.554688 14.164062 C 74.554688 14.40625 74.597656 14.4375 74.933594 14.4375 L 75.316406 14.4375 L 75.316406 12.359375 C 75.316406 10.402344 75.328125 10.269531 75.535156 10.148438 C 75.839844 9.953125 75.808594 9.691406 75.414062 9.363281 C 75 9.011719 74.980469 9.011719 74.660156 9.351562 C 74.410156 9.613281 74.355469 9.625 72.960938 9.625 L 71.507812 9.625 L 71.867188 9.023438 C 72.0625 8.695312 72.292969 8.28125 72.371094 8.09375 L 72.5 7.765625 L 74.78125 7.765625 C 76.898438 7.765625 77.0625 7.753906 77.0625 7.570312 C 77.0625 7.359375 76.320312 6.5625 76.125 6.5625 C 76.058594 6.5625 75.875 6.757812 75.6875 7 Z M 74.554688 10.71875 L 74.554688 11.484375 L 69.203125 11.484375 L 69.203125 9.953125 L 74.554688 9.953125 Z M 74.554688 12.742188 L 74.554688 13.5625 L 69.203125 13.5625 L 69.203125 11.921875 L 74.554688 11.921875 Z M 74.554688 12.742188 "/>
<path style=" stroke:none;fill-rule:nonzero;fill:rgb(0%,0%,0%);fill-opacity:1;" d="M 47.789062 7.21875 L 47.546875 7.546875 L 45.726562 7.546875 C 44.152344 7.546875 43.824219 7.515625 43.398438 7.328125 L 42.898438 7.121094 L 42.898438 18.921875 L 43.28125 18.921875 C 43.660156 18.921875 43.660156 18.921875 43.660156 18.429688 L 43.660156 17.9375 L 45.660156 17.960938 L 47.644531 17.992188 L 47.679688 18.453125 C 47.710938 18.910156 47.722656 18.921875 48.09375 18.921875 L 48.464844 18.921875 L 48.464844 13.53125 C 48.464844 8.269531 48.464844 8.148438 48.683594 8.007812 C 48.804688 7.929688 48.902344 7.808594 48.902344 7.734375 C 48.902344 7.589844 48.246094 6.890625 48.105469 6.890625 C 48.070312 6.890625 47.929688 7.03125 47.789062 7.21875 Z M 47.679688 9.320312 L 47.710938 10.71875 L 43.660156 10.71875 L 43.660156 7.875 L 45.660156 7.898438 L 47.644531 7.929688 Z M 47.699219 12.578125 L 47.699219 14 L 43.660156 14 L 43.660156 11.15625 L 47.699219 11.15625 Z M 47.679688 15.992188 L 47.644531 17.554688 L 43.714844 17.554688 L 43.683594 15.992188 L 43.652344 14.4375 L 47.710938 14.4375 Z M 47.679688 15.992188 "/>
<path style=" stroke:none;fill-rule:nonzero;fill:rgb(0%,0%,0%);fill-opacity:1;" d="M 61.367188 9.515625 L 61.117188 9.84375 L 58.988281 9.84375 C 57.078125 9.84375 56.816406 9.820312 56.433594 9.625 C 56.191406 9.503906 55.976562 9.40625 55.941406 9.40625 C 55.910156 9.40625 55.886719 10.46875 55.886719 11.757812 L 55.886719 14.109375 L 56.257812 14.109375 C 56.609375 14.109375 56.640625 14.078125 56.671875 13.75 L 56.707031 13.398438 L 57.558594 13.367188 L 58.398438 13.332031 L 58.398438 15.09375 L 56.53125 15.09375 C 55.089844 15.09375 54.675781 15.125 54.707031 15.226562 C 54.753906 15.335938 55.230469 15.378906 56.519531 15.398438 C 57.832031 15.421875 58.289062 15.464844 58.289062 15.5625 C 58.289062 15.902344 57.722656 16.832031 57.261719 17.257812 C 56.671875 17.796875 55.679688 18.308594 54.828125 18.496094 C 54.5 18.570312 54.261719 18.679688 54.28125 18.746094 C 54.347656 18.945312 54.851562 18.945312 55.582031 18.757812 C 57.175781 18.351562 58.300781 17.542969 58.824219 16.4375 L 59.074219 15.882812 L 59.585938 16.546875 C 60.1875 17.335938 61.28125 18.125 62.285156 18.484375 C 62.675781 18.617188 63.003906 18.714844 63.027344 18.691406 C 63.199219 18.453125 63.527344 17.949219 63.527344 17.914062 C 63.527344 17.882812 63.246094 17.796875 62.90625 17.730469 C 61.859375 17.488281 60.753906 16.921875 60.035156 16.230469 C 59.675781 15.890625 59.414062 15.5625 59.445312 15.519531 C 59.480469 15.464844 60.351562 15.421875 61.398438 15.421875 C 62.664062 15.421875 63.320312 15.378906 63.375 15.300781 C 63.40625 15.234375 63.246094 14.972656 62.992188 14.722656 L 62.535156 14.273438 L 62.1875 14.6875 L 61.835938 15.09375 L 59.160156 15.09375 L 59.160156 14.65625 C 59.160156 14.351562 59.226562 14.164062 59.378906 14.03125 C 59.675781 13.769531 59.652344 13.695312 59.25 13.519531 C 58.910156 13.367188 58.953125 13.367188 60.066406 13.355469 L 61.234375 13.34375 L 61.234375 13.671875 C 61.234375 13.976562 61.269531 14 61.617188 14 L 62 14 L 62 12.238281 C 62 10.542969 62.011719 10.46875 62.25 10.28125 L 62.492188 10.074219 L 62.054688 9.625 L 61.605469 9.175781 Z M 61.234375 10.773438 L 61.234375 11.375 L 58.976562 11.351562 L 56.707031 11.320312 L 56.671875 10.894531 C 56.609375 10.140625 56.519531 10.171875 59 10.171875 L 61.234375 10.171875 Z M 61.234375 12.359375 L 61.234375 13.015625 L 56.652344 13.015625 L 56.652344 12.4375 C 56.652344 12.109375 56.683594 11.8125 56.726562 11.78125 C 56.761719 11.734375 57.796875 11.703125 59.019531 11.703125 L 61.234375 11.703125 Z M 61.234375 12.359375 "/>
<path style=" stroke:none;fill-rule:nonzero;fill:rgb(0%,0%,0%);fill-opacity:1;" d="M 73.351562 14.996094 C 73.351562 15.050781 73.65625 15.390625 74.027344 15.726562 C 74.390625 16.066406 74.96875 16.734375 75.296875 17.203125 C 75.929688 18.113281 76.113281 18.253906 76.398438 18.078125 C 77.105469 17.632812 75.863281 16.035156 74.09375 15.136719 C 73.527344 14.851562 73.351562 14.820312 73.351562 14.996094 Z M 73.351562 14.996094 "/>
<path style=" stroke:none;fill-rule:nonzero;fill:rgb(0%,0%,0%);fill-opacity:1;" d="M 68.660156 15.816406 C 68.386719 16.285156 67.808594 17.050781 67.359375 17.523438 C 66.769531 18.15625 66.585938 18.417969 66.671875 18.507812 C 66.921875 18.757812 68.550781 17.445312 69.300781 16.394531 C 69.519531 16.101562 69.761719 15.890625 69.9375 15.859375 C 70.339844 15.78125 70.359375 15.585938 69.988281 15.335938 C 69.324219 14.851562 69.203125 14.898438 68.660156 15.816406 Z M 68.660156 15.816406 "/>
</g>
</svg>
